<?xml version="1.0" encoding="utf-8"?>
<!-- Generator: Adobe Illustrator 17.1.0, SVG Export Plug-In . SVG Version: 6.00 Build 0)  -->
<!DOCTYPE svg PUBLIC "-//W3C//DTD SVG 1.1//EN" "http://www.w3.org/Graphics/SVG/1.1/DTD/svg11.dtd">
<svg version="1.1" xmlns="http://www.w3.org/2000/svg" xmlns:xlink="http://www.w3.org/1999/xlink" x="0px" y="0px"
	 viewBox="0 0 100 100" enable-background="new 0 0 100 100" xml:space="preserve">
<path fill="#1A1818" d="M91.5,93.1H8.5c-0.9,0-1.6-0.7-1.6-1.6V8.5c0-0.9,0.7-1.6,1.6-1.6h83.1c0.9,0,1.6,0.7,1.6,1.6v83.1
	C93.1,92.4,92.4,93.1,91.5,93.1z M10.1,89.9h79.9V10.1H10.1V89.9z"/>
<g>
	<path fill="#1A1818" d="M24.2,77.9c-0.4,0-0.8-0.2-1.1-0.5c-0.6-0.6-0.6-1.6,0-2.3l52.8-52.8c0.6-0.6,1.6-0.6,2.3,0s0.6,1.6,0,2.3
		L25.3,77.5C25,77.8,24.6,77.9,24.2,77.9z"/>
</g>
<g>
	<path fill="#1A1818" d="M31.7,38.4c-1.3-0.4-2.4-0.9-3.2-1.5l1.4-3.1c0.8,0.6,1.7,1,2.7,1.4c1.1,0.3,2.1,0.5,3.2,0.5
		c1.2,0,2-0.2,2.6-0.5c0.6-0.3,0.8-0.8,0.8-1.4c0-0.4-0.2-0.8-0.5-1.1c-0.3-0.3-0.8-0.5-1.3-0.7c-0.5-0.2-1.2-0.4-2.1-0.6
		c-1.4-0.3-2.5-0.6-3.3-1c-0.9-0.3-1.6-0.8-2.2-1.6c-0.6-0.7-0.9-1.7-0.9-2.9c0-1,0.3-2,0.8-2.8c0.6-0.8,1.4-1.5,2.5-2
		c1.1-0.5,2.5-0.7,4.1-0.7c1.1,0,2.3,0.1,3.3,0.4c1.1,0.3,2,0.7,2.9,1.2l-1.3,3.1c-1.6-0.9-3.3-1.4-4.9-1.4c-1.2,0-2,0.2-2.6,0.6
		c-0.6,0.4-0.8,0.9-0.8,1.5c0,0.6,0.3,1.1,1,1.4c0.6,0.3,1.6,0.6,2.9,0.9c1.4,0.3,2.5,0.6,3.3,1c0.9,0.3,1.6,0.8,2.2,1.5
		s0.9,1.6,0.9,2.8c0,1-0.3,2-0.9,2.8c-0.6,0.8-1.4,1.5-2.6,2c-1.1,0.5-2.5,0.7-4.2,0.7C34.4,39,33,38.8,31.7,38.4z"/>
</g>
<g>
	<path fill="#1A1818" d="M69,79l-3.4-5h-0.2h-3.6v5h-4.1V61.2h7.7c1.6,0,3,0.3,4.1,0.8c1.2,0.5,2.1,1.3,2.7,2.2
		c0.6,1,0.9,2.1,0.9,3.4s-0.3,2.5-1,3.4c-0.6,1-1.5,1.7-2.7,2.2l4,5.7H69z M67.9,65.4c-0.6-0.5-1.6-0.8-2.8-0.8h-3.4v6.2h3.4
		c1.2,0,2.2-0.3,2.8-0.8c0.6-0.5,1-1.3,1-2.3C68.9,66.7,68.6,65.9,67.9,65.4z"/>
</g>
</svg>
